<svg xmlns="http://www.w3.org/2000/svg" viewBox="0 0 1547.46 331.54"><path d="M122.18,295.17A228.24,228.24,0,0,1,56,285.22a16.18,16.18,0,0,1-10.67-9.33A127.68,127.68,0,0,1,36,245.24c-.08-.48-.2-1-.32-1.45l0-.16-.2-.06-1.5-.38a36.37,36.37,0,0,1-18.36-10.77,15.28,15.28,0,0,1-4.1-8.78,80.14,80.14,0,0,1,4.07-38.22,19.1,19.1,0,0,0,.49-9.73l-.3-1.87a56.82,56.82,0,0,1-.81-6.45,66.86,66.86,0,0,0-1.4-10.8A192,192,0,0,1,9.11,124.4a51.72,51.72,0,0,1,1.51-16.81,27.9,27.9,0,0,1,5.24-10.41c3.81-4.53,7.93-9.35,12.22-13.93a107.23,107.23,0,0,1,19.6-16.1A423.2,423.2,0,0,1,107.56,34a122.68,122.68,0,0,1,23.76-8.13,67.45,67.45,0,0,1,14.55-1.62,70.31,70.31,0,0,1,25.7,5c5.8,2.27,13.26,5.58,19.51,11,4.7,4.1,7.32,8.15,8.22,12.75a32.28,32.28,0,0,1-1.17,18.07L197.4,73a2.46,2.46,0,0,0,.46.23c9.5,3.25,17.79,8.88,25.36,17.23l.69.78c.49.56,1,1.08,1.45,1.58,6.55,6.54,10.31,15.07,11.51,26.08a101.07,101.07,0,0,1-1.56,29.48c-1.37,7.41-2.51,15.46-3.49,24.61a20.3,20.3,0,0,1-1.47,5.08,2,2,0,0,0,0,1.66A55.36,55.36,0,0,1,234,198.84c.19,5.89.33,11.77.48,17.65l.11,4.75A15.35,15.35,0,0,1,231,231c-4.12,5.47-9.56,9.26-13.83,12a34.66,34.66,0,0,1-5,2.64,2.29,2.29,0,0,0-1.51,1.62c-.31,1-.62,2-.94,3-.72,2.32-1.47,4.72-2.06,7.1a55.68,55.68,0,0,1-11.28,22.5,17,17,0,0,1-8.44,5.56,230.44,230.44,0,0,1-57,9.56C128,295.11,125.06,295.17,122.18,295.17ZM31.54,188.77a63,63,0,0,0-4.14,31.8,3.32,3.32,0,0,0,.82,1.6,19.24,19.24,0,0,0,10.72,5.6c7.15,1.29,11.51,5.76,12.62,12.93a113.45,113.45,0,0,0,7.77,27,4,4,0,0,0,2.9,2.6,210.88,210.88,0,0,0,59.93,8.79c4.46,0,9-.15,13.46-.43a216.19,216.19,0,0,0,46.32-8.21,5.41,5.41,0,0,0,3-2.07,38.63,38.63,0,0,0,6.85-14.07c.14-.55.27-1.11.41-1.66.5-2.06,1-4.18,1.73-6.22a81.37,81.37,0,0,1,3.76-9.3,11.34,11.34,0,0,1,8.64-6.68,2.73,2.73,0,0,0,1-.32,41.9,41.9,0,0,0,10.28-8,2.92,2.92,0,0,0,.84-2.22c0-1.22,0-2.44,0-3.66,0-1.45,0-3-.08-4.41l-.15-3.64c-.2-4.92-.41-10-.85-15a22.06,22.06,0,0,0-3.09-9.69,8.72,8.72,0,0,0-5.81,7.09c-.15.87-.22,1.77-.29,2.73,0,.45-.07.92-.11,1.39l-.09.91h-8.79l-.08-.91c0-.21,0-.39-.07-.56a6.4,6.4,0,0,1-.06-1.16c.07-.8.15-1.6.23-2.4.1-1,.2-1.91.27-2.87a189.07,189.07,0,0,0-.29-29.37,187.32,187.32,0,0,0-8.61-42l-.52-1.59a115.38,115.38,0,0,0-6.63-17.24,32.4,32.4,0,0,0-23.48-17.71,49.09,49.09,0,0,0-9.51-.91,61.19,61.19,0,0,0-9.22.73c-12.13,1.83-24.37,6.1-37.44,13.07a7.33,7.33,0,0,0-2.3,2.18c-1.6,2.18-3.16,4.39-4.72,6.59-2.59,3.64-5.26,7.41-8,11a124.61,124.61,0,0,1-11.13,12.82c-6.4,6.23-14.73,9.93-25.47,11.31l-1.54.18h-.13c-2.54,19.3-4.55,39.76-6.12,62.54l-.07.93H35.39l-.15-.83A29.17,29.17,0,0,0,31.54,188.77Z"/><path d="M145.87,25.21a69.14,69.14,0,0,1,25.34,5c6.91,2.71,13.56,5.92,19.21,10.85,3.8,3.3,6.91,7.14,7.9,12.19a31.57,31.57,0,0,1-1.13,17.53c-.32.85-.65,1.71-1,2.72a9.2,9.2,0,0,0,1.37.74c9.86,3.38,18,9.3,24.94,17,.72.79,1.41,1.63,2.17,2.39,7,7,10.17,15.8,11.22,25.48a100.29,100.29,0,0,1-1.54,29.19c-1.52,8.19-2.62,16.41-3.51,24.68a19,19,0,0,1-1.4,4.83,2.91,2.91,0,0,0,0,2.4A54.25,54.25,0,0,1,233,198.87c.24,7.47.41,14.93.59,22.39a14.41,14.41,0,0,1-3.32,9.16c-3.67,4.88-8.46,8.49-13.57,11.71a32.19,32.19,0,0,1-4.9,2.57,3.31,3.31,0,0,0-2.08,2.26c-1,3.39-2.16,6.75-3,10.18a54.12,54.12,0,0,1-11.08,22.1,16,16,0,0,1-8,5.24,228,228,0,0,1-56.8,9.52q-4.34.17-8.65.17a226,226,0,0,1-65.88-9.91,15.06,15.06,0,0,1-10-8.78A126.47,126.47,0,0,1,37,245.08c-.12-.75-.32-1.48-.5-2.27-.83-.21-1.56-.42-2.3-.59a35.3,35.3,0,0,1-17.87-10.49,14.28,14.28,0,0,1-3.82-8.22,78.69,78.69,0,0,1,4-37.75c1.24-3.39,1.07-6.77.54-10.22-.42-2.73-1-5.47-1.11-8.22a67.62,67.62,0,0,0-1.41-11,190.58,190.58,0,0,1-4.41-32,50.1,50.1,0,0,1,1.47-16.49,26.86,26.86,0,0,1,5-10.05c4-4.71,8-9.39,12.18-13.89A107.7,107.7,0,0,1,48.23,68,420.86,420.86,0,0,1,108,34.87a121.69,121.69,0,0,1,23.57-8.07,66,66,0,0,1,14.33-1.59M36.22,199.28c-.79-4.37-1.92-8.63-4.79-12.42a9.36,9.36,0,0,0-.61,1,63.74,63.74,0,0,0-4.41,32.81,4.16,4.16,0,0,0,1.09,2.17,20.08,20.08,0,0,0,11.26,5.89c6.79,1.23,10.77,5.35,11.82,12.1a113.11,113.11,0,0,0,7.83,27.22A5,5,0,0,0,62,271.24a210.9,210.9,0,0,0,60.21,8.83c4.5,0,9-.15,13.53-.44a215.62,215.62,0,0,0,46.53-8.24,6.45,6.45,0,0,0,3.51-2.42,39.55,39.55,0,0,0,7-14.44c.66-2.61,1.24-5.25,2.11-7.79a79.55,79.55,0,0,1,3.72-9.19,10.4,10.4,0,0,1,7.89-6.13,3.92,3.92,0,0,0,1.3-.44,43.2,43.2,0,0,0,10.52-8.21,4,4,0,0,0,1.1-2.93c-.09-2.69,0-5.39-.13-8.08-.27-6.23-.46-12.46-1-18.67a23.08,23.08,0,0,0-3.54-10.61l-.51,0a.58.58,0,0,0-.23,0,9.81,9.81,0,0,0-6.61,7.92c-.23,1.35-.27,2.73-.41,4.2h-7a10.65,10.65,0,0,1-.12-1.55c.14-1.76.37-3.51.49-5.27a187.83,187.83,0,0,0-.29-29.53,186.56,186.56,0,0,0-8.65-42.21c-2.1-6.44-4.1-12.92-7.21-19C179.09,87.09,171,81,160,78.84a49.83,49.83,0,0,0-9.71-.93,62.94,62.94,0,0,0-9.37.74c-13.4,2-25.86,6.83-37.76,13.17a8.54,8.54,0,0,0-2.64,2.48c-4.27,5.84-8.32,11.85-12.74,17.58a120.43,120.43,0,0,1-11,12.71c-6.87,6.69-15.5,9.83-24.9,11l-2.43.28C46.65,157,44.69,178,43.22,199.28h-7M145.87,23.21h0a68.78,68.78,0,0,0-14.77,1.64,122.89,122.89,0,0,0-23.95,8.2,424.2,424.2,0,0,0-60,33.27A108,108,0,0,0,27.35,82.57C23,87.16,18.92,92,15.1,96.54a28.72,28.72,0,0,0-5.44,10.77,52.81,52.81,0,0,0-1.55,17.14,191.89,191.89,0,0,0,4.46,32.33,66.18,66.18,0,0,1,1.37,10.64,57.62,57.62,0,0,0,.82,6.56l.3,1.86a18.2,18.2,0,0,1-.44,9.23,81,81,0,0,0-4.12,38.7,16.53,16.53,0,0,0,4.36,9.34,37.37,37.37,0,0,0,18.86,11l1.09.28c.08.33.15.66.2,1a129,129,0,0,0,9.42,30.88,17.1,17.1,0,0,0,11.29,9.89,229.55,229.55,0,0,0,66.46,10c2.89,0,5.83-.06,8.73-.17a231.83,231.83,0,0,0,57.29-9.6,17.89,17.89,0,0,0,8.93-5.88,56.77,56.77,0,0,0,11.49-22.9c.58-2.35,1.32-4.74,2-7,.31-1,.63-2,.94-3.05a1.3,1.3,0,0,1,.93-1,35.82,35.82,0,0,0,5.2-2.73c4.35-2.74,9.88-6.59,14.1-12.19a16.37,16.37,0,0,0,3.72-10.42l-.11-4.69c-.15-5.8-.29-11.8-.48-17.71a55.82,55.82,0,0,0-3.73-19.41,1,1,0,0,1,.05-.92,21,21,0,0,0,1.53-5.35c1-9.12,2.12-17.15,3.48-24.53a102,102,0,0,0,1.57-29.77c-1.22-11.24-5.08-20-11.79-26.68-.48-.47-.93-1-1.41-1.53-.23-.26-.46-.53-.7-.79-7.55-8.33-15.83-14-25.29-17.34l.39-1a33.2,33.2,0,0,0,1.22-18.62c-.95-4.83-3.66-9.06-8.54-13.31-6.37-5.55-13.93-8.9-19.8-11.2a71.32,71.32,0,0,0-26.07-5.11ZM51.23,137.72l.91-.11c11-1.41,19.47-5.2,26-11.59A125.23,125.23,0,0,0,89.4,113.1c2.79-3.61,5.47-7.39,8.06-11,1.54-2.16,3.13-4.4,4.72-6.58a6.45,6.45,0,0,1,2-1.89c13-6.91,25.11-11.15,37.12-13a60.51,60.51,0,0,1,9.07-.72,47.22,47.22,0,0,1,9.32.9c10.47,2.09,17.92,7.71,22.78,17.18A115,115,0,0,1,189,115.08l.52,1.59a186.46,186.46,0,0,1,8.56,41.76,187,187,0,0,1,.29,29.21c-.07.93-.17,1.9-.26,2.83s-.17,1.62-.24,2.43a6.58,6.58,0,0,0,.07,1.36c0,.16,0,.34.06.53l.16,1.82h10.62l.17-1.81c.05-.49.08-1,.12-1.42.07-.93.13-1.8.27-2.63a7.72,7.72,0,0,1,4.42-6,21.4,21.4,0,0,1,2.5,8.51c.44,4.94.65,10,.85,14.92l.15,3.66c.07,1.44.07,2.92.08,4.36,0,1.21,0,2.45,0,3.69a1.93,1.93,0,0,1-.58,1.52,40.77,40.77,0,0,1-10,7.82,1.9,1.9,0,0,1-.61.21,12.44,12.44,0,0,0-9.38,7.22,83.81,83.81,0,0,0-3.81,9.41c-.72,2.09-1.24,4.24-1.75,6.31-.14.55-.27,1.11-.41,1.65a37.82,37.82,0,0,1-6.67,13.72,4.56,4.56,0,0,1-2.48,1.71,214.75,214.75,0,0,1-46.1,8.17c-4.46.28-9,.43-13.4.43a209.51,209.51,0,0,1-59.64-8.75,3.07,3.07,0,0,1-2.27-2,112.31,112.31,0,0,1-7.7-26.75c-1.18-7.62-5.82-12.38-13.43-13.75A18,18,0,0,1,29,221.48a2.12,2.12,0,0,1-.55-1,61.86,61.86,0,0,1,3.31-29.33,32,32,0,0,1,2.54,8.52l.3,1.65H45.09l.12-1.87c1.56-22.44,3.53-42.64,6-61.69Z"/><path d="M283.45,221.78l31.84-23.88c6,11.53,14.82,17,22.51,17,12.63,0,19.76-6,19.76-28.54V73.84h47.22V190.22c0,35.68-19.22,65.33-60.39,65.33C315.29,255.55,296.63,244.57,283.45,221.78Z"/><path d="M421.27,213.28c0-28.55,22-44.47,74.66-50-1.09-9.88-7.13-14.27-19.21-14.27-9.88,0-20.31,3.84-34.59,11.52l-16.47-30.74c19.22-11.53,39-18.12,60.39-18.12,35.69,0,57.1,19.22,57.1,64.23v76.31H504.72l-3.3-13.17h-1.09c-11,9.88-23.06,16.47-37.88,16.47C436.64,255.55,421.27,235.78,421.27,213.28Zm74.66-3.3V191.32c-22.5,3.29-29.64,10.43-29.64,18.11,0,6.32,4.39,9.89,12.63,9.89C486.6,219.32,491,215.47,495.93,210Z"/><path d="M564.28,61.21H610.4V162.77h1.1L649.38,115h51L651.57,172.1l51.61,80.15H652.12l-27.45-48.86L610.4,219.32v32.93H564.28Z"/><path d="M702.11,183.63c0-44.47,32.39-71.92,65.88-71.92,40.62,0,59.83,29.65,59.83,66.43a97.58,97.58,0,0,1-1.92,19.76H747.67c4.4,16.47,16.47,22,31.84,22,9.34,0,18.12-2.74,28-8.23l15.37,28c-14.82,10.43-34.58,15.92-50,15.92C732.85,255.55,702.11,229.2,702.11,183.63Zm85.64-16.47c0-10.43-4.39-19.76-18.67-19.76-10.43,0-19.21,6-22,19.76Z"/><path d="M895.35,73.84h48.31l9.88,77.95c1.92,18.67,4.12,37.33,6,56h1.1c3.29-18.67,6.59-37.61,9.88-56l17-77.95h39.52l17,77.95c3.3,17.84,6.59,37.06,9.88,56h1.1c1.92-18.94,4.12-37.88,6-56L1071,73.84h45l-29.65,178.41h-59.83l-13.73-70.81c-2.74-13.73-4.94-28.55-6.59-41.73h-1.09c-1.93,13.18-3.85,28-6.59,41.73l-13.18,70.81H926.64Z"/><path d="M1126.56,74.38c0-13.72,11-23.6,26.35-23.6s26.35,9.88,26.35,23.6S1168.28,98,1152.91,98,1126.56,88.11,1126.56,74.38ZM1129.3,115h47.21V252.25H1129.3Z"/><path d="M1188.81,274.76c0-11.25,6.59-19.76,19.21-26.35v-1.1c-7.13-4.94-12.62-12.07-12.62-23.6,0-9.34,6-19.22,15.37-25.81v-1.09a42.57,42.57,0,0,1-18.67-35.14c0-34,28.55-50,58.74-50a70.62,70.62,0,0,1,22,3.3h51.06v34H1304.1a49,49,0,0,1,2.19,14.27c0,32.39-24.7,45.56-55.45,45.56a68.94,68.94,0,0,1-15.37-1.92c-2.74,2.47-3.29,4.12-3.29,8,0,6,5.49,8.24,19.21,8.24H1272c34.31,0,54.07,10.43,54.07,35.68,0,29.65-30.74,50-79.6,50C1215.16,308.8,1188.81,299.47,1188.81,274.76Zm92.23-7.68c0-7.14-6.59-8.24-18.39-8.24h-10.71c-11,0-15.92-.55-19.76-1.65-3.29,3.3-4.94,6-4.94,9.89,0,8.78,11,12.62,26.9,12.62C1269.51,279.7,1281,274.76,1281,267.08Zm-15.37-105.41c0-12.62-6-18.66-14.83-18.66s-14.82,6-14.82,18.66c0,13.18,6,19.22,14.82,19.22S1265.67,174.85,1265.67,161.67Z"/><path d="M1335,213.28c0-28.55,22-44.47,74.67-50-1.1-9.88-7.14-14.27-19.22-14.27-9.88,0-20.31,3.84-34.58,11.52l-16.47-30.74c19.21-11.53,39-18.12,60.38-18.12,35.69,0,57.1,19.22,57.1,64.23v76.31h-38.43l-3.29-13.17h-1.1c-11,9.88-23.06,16.47-37.88,16.47C1350.38,255.55,1335,235.78,1335,213.28Zm74.67-3.3V191.32c-22.51,3.29-29.65,10.43-29.65,18.11,0,6.32,4.39,9.89,12.63,9.89C1400.33,219.32,1404.72,215.47,1409.67,210Z"/><path d="M1477.91,203.94V61.21h47.21V205.59c0,9.33,4.39,12.08,7.68,12.08a17,17,0,0,0,5-.55l5.48,34.58c-4.94,2.2-12.62,3.85-23,3.85C1488.34,255.55,1477.91,234.69,1477.91,203.94Z"/></svg>