<?xml version="1.0" encoding="utf-8"?>
<!-- Generator: Adobe Illustrator 27.9.0, SVG Export Plug-In . SVG Version: 6.00 Build 0)  -->
<svg version="1.1" id="Layer_1" xmlns="http://www.w3.org/2000/svg" xmlns:xlink="http://www.w3.org/1999/xlink" x="0px" y="0px"
	 viewBox="0 0 1567.5 331.5" style="enable-background:new 0 0 1567.5 331.5;" xml:space="preserve">
<path d="M114.2,295.2c-22.4,0-44.7-3.4-66.2-10c-4.8-1.3-8.7-4.7-10.7-9.3c-4.4-9.8-7.5-20.1-9.3-30.7c-0.1-0.5-0.2-1-0.3-1.4v-0.2
	l-0.2-0.1l-1.5-0.4c-7.1-1.7-13.5-5.4-18.4-10.8c-2.3-2.4-3.7-5.5-4.1-8.8c-1.8-12.9-0.4-26,4.1-38.2c1-3.1,1.2-6.5,0.5-9.7
	l-0.3-1.9c-0.4-2.1-0.7-4.3-0.8-6.4c-0.2-3.6-0.6-7.2-1.4-10.8c-2.4-10.6-3.9-21.3-4.5-32.2c-0.4-5.6,0.1-11.3,1.5-16.8
	c1-3.8,2.8-7.3,5.2-10.4c3.8-4.5,7.9-9.3,12.2-13.9c5.9-6.1,12.5-11.5,19.6-16.1c19-12.6,39.1-23.7,59.9-33.2
	c7.6-3.5,15.6-6.2,23.8-8.1c4.8-1.1,9.7-1.6,14.6-1.6c8.8,0,17.5,1.7,25.7,5c5.8,2.3,13.3,5.6,19.5,11c4.7,4.1,7.3,8.2,8.2,12.8
	c1.3,6,0.9,12.3-1.2,18.1l-0.7,1.9c0.1,0.1,0.3,0.2,0.5,0.2c9.5,3.2,17.8,8.9,25.4,17.2l0.7,0.8c0.5,0.6,1,1.1,1.4,1.6
	c6.6,6.5,10.3,15.1,11.5,26.1c0.9,9.9,0.4,19.8-1.6,29.5c-1.4,7.4-2.5,15.5-3.5,24.6c-0.3,1.8-0.8,3.5-1.5,5.1
	c-0.2,0.5-0.2,1.1,0,1.7c2.3,6.1,3.6,12.6,3.7,19.1c0.2,5.9,0.3,11.8,0.5,17.6l0.1,4.8c0,3.6-1.3,7-3.6,9.8
	c-4.1,5.5-9.6,9.3-13.8,12c-1.6,1-3.3,1.9-5,2.6c-0.7,0.2-1.3,0.9-1.5,1.6c-0.3,1-0.6,2-0.9,3c-0.7,2.3-1.5,4.7-2.1,7.1
	c-2,8.3-5.9,16-11.3,22.5c-2.2,2.7-5.1,4.6-8.4,5.6c-18.5,5.6-37.7,8.8-57,9.6C120.1,295.1,117.1,295.2,114.2,295.2z M23.6,188.8
	c-4.1,10.1-5.5,21-4.1,31.8c0.1,0.6,0.4,1.2,0.8,1.6c2.9,3,6.6,4.9,10.7,5.6c7.1,1.3,11.5,5.8,12.6,12.9c1.5,9.3,4.1,18.4,7.8,27
	c0.5,1.3,1.5,2.3,2.9,2.6c19.4,5.8,39.6,8.8,59.9,8.8c4.5,0,9-0.1,13.5-0.4c15.7-1,31.2-3.8,46.3-8.2c1.2-0.3,2.3-1.1,3-2.1
	c3.2-4.2,5.6-9,6.9-14.1c0.1-0.6,0.3-1.1,0.4-1.7c0.5-2.1,1-4.2,1.7-6.2c1.1-3.2,2.3-6.3,3.8-9.3c1.5-3.6,4.8-6.1,8.6-6.7
	c0.4,0,0.7-0.1,1-0.3c3.8-2.1,7.3-4.8,10.3-8c0.6-0.6,0.9-1.4,0.8-2.2c0-1.2,0-2.4,0-3.7c0-1.4,0-3-0.1-4.4l-0.1-3.6
	c-0.2-4.9-0.4-10-0.9-15c-0.3-3.4-1.3-6.7-3.1-9.7c-3.1,1.1-5.4,3.8-5.8,7.1c-0.1,0.9-0.2,1.8-0.3,2.7c0,0.4-0.1,0.9-0.1,1.4
	l-0.1,0.9h-8.8l-0.1-0.9c0-0.2,0-0.4-0.1-0.6c-0.1-0.4-0.1-0.8-0.1-1.2c0.1-0.8,0.1-1.6,0.2-2.4c0.1-1,0.2-1.9,0.3-2.9
	c0.7-9.8,0.6-19.6-0.3-29.4c-1.3-14.3-4.1-28.4-8.6-42l-0.5-1.6c-1.7-5.9-4-11.7-6.6-17.2c-4.5-9.3-13.3-15.9-23.5-17.7
	c-3.1-0.6-6.3-0.9-9.5-0.9c-3.1,0-6.2,0.3-9.2,0.7c-12.1,1.8-24.4,6.1-37.4,13.1c-0.9,0.6-1.7,1.3-2.3,2.2c-1.6,2.2-3.2,4.4-4.7,6.6
	c-2.6,3.6-5.3,7.4-8,11c-3.4,4.5-7.1,8.8-11.1,12.8c-6.4,6.2-14.7,9.9-25.5,11.3l-1.5,0.2h-0.1c-2.5,19.3-4.5,39.8-6.1,62.5
	l-0.1,0.9h-8.9l-0.2-0.8C26.8,195.7,25.5,192,23.6,188.8z"/>
<path d="M137.9,25.2c8.7,0.1,17.3,1.8,25.3,5c6.9,2.7,13.6,5.9,19.2,10.8c3.8,3.3,6.9,7.1,7.9,12.2c1.3,5.8,0.9,11.9-1.1,17.5
	c-0.3,0.8-0.6,1.7-1,2.7c0.4,0.3,0.9,0.5,1.4,0.7c9.9,3.4,18,9.3,24.9,17c0.7,0.8,1.4,1.6,2.2,2.4c7,7,10.2,15.8,11.2,25.5
	c0.9,9.8,0.4,19.6-1.5,29.2c-1.5,8.2-2.6,16.4-3.5,24.7c-0.3,1.7-0.7,3.3-1.4,4.8c-0.3,0.8-0.3,1.6,0,2.4c2.3,6,3.5,12.3,3.6,18.7
	c0.2,7.5,0.4,14.9,0.6,22.4c0,3.3-1.2,6.6-3.3,9.2c-3.7,4.9-8.5,8.5-13.6,11.7c-1.6,1-3.2,1.9-4.9,2.6c-1,0.4-1.8,1.2-2.1,2.3
	c-1,3.4-2.2,6.8-3,10.2c-1.9,8.1-5.7,15.7-11.1,22.1c-2.1,2.5-4.9,4.3-8,5.2c-18.5,5.6-37.5,8.8-56.8,9.5c-2.9,0.1-5.8,0.2-8.7,0.2
	c-22.3,0-44.5-3.4-65.9-9.9c-4.5-1.2-8.2-4.5-10-8.8c-4.4-9.7-7.5-19.9-9.3-30.4c-0.1-0.8-0.3-1.5-0.5-2.3c-0.8-0.2-1.6-0.4-2.3-0.6
	c-6.9-1.6-13.1-5.3-17.9-10.5c-2.1-2.3-3.5-5.1-3.8-8.2c-1.8-12.7-0.4-25.7,4-37.8c1.2-3.4,1.1-6.8,0.5-10.2c-0.4-2.7-1-5.5-1.1-8.2
	c-0.2-3.7-0.6-7.4-1.4-11c-2.4-10.5-3.8-21.2-4.4-32c-0.4-5.5,0.1-11.1,1.5-16.5c0.9-3.7,2.6-7.1,5-10.1c4-4.7,8-9.4,12.2-13.9
	c5.8-6,12.4-11.4,19.5-15.9c19-12.6,39-23.7,59.8-33.1c7.6-3.5,15.5-6.2,23.6-8.1C128.3,25.7,133.1,25.2,137.9,25.2 M28.3,199.3
	c-0.8-4.4-1.9-8.6-4.8-12.4c-0.2,0.3-0.4,0.7-0.6,1c-4.3,10.4-5.9,21.7-4.4,32.8c0.1,0.8,0.5,1.6,1.1,2.2c3,3.1,7,5.2,11.3,5.9
	c6.8,1.2,10.8,5.4,11.8,12.1c1.5,9.4,4.1,18.5,7.8,27.2c0.6,1.6,1.9,2.8,3.6,3.2c19.5,5.8,39.8,8.8,60.2,8.8c4.5,0,9-0.1,13.5-0.4
	c15.8-1,31.4-3.8,46.5-8.2c1.4-0.4,2.6-1.2,3.5-2.4c3.3-4.3,5.7-9.2,7-14.4c0.7-2.6,1.2-5.2,2.1-7.8c1-3.1,2.3-6.2,3.7-9.2
	c1.4-3.3,4.4-5.6,7.9-6.1c0.5-0.1,0.9-0.2,1.3-0.4c3.9-2.2,7.5-4.9,10.5-8.2c0.7-0.8,1.1-1.8,1.1-2.9c-0.1-2.7,0-5.4-0.1-8.1
	c-0.3-6.2-0.5-12.5-1-18.7c-0.3-3.8-1.5-7.4-3.5-10.6h-0.5c-0.1,0-0.2,0-0.2,0c-3.5,1.2-6.1,4.2-6.6,7.9c-0.2,1.4-0.3,2.7-0.4,4.2
	h-7c-0.1-0.5-0.1-1-0.1-1.6c0.1-1.8,0.4-3.5,0.5-5.3c0.7-9.8,0.6-19.7-0.3-29.5c-1.2-14.4-4.1-28.5-8.6-42.2
	c-2.1-6.4-4.1-12.9-7.2-19c-5.1-9.9-13.2-16-24.2-18.2c-3.2-0.6-6.5-0.9-9.7-0.9c-3.1,0-6.3,0.3-9.4,0.7c-13.4,2-25.9,6.8-37.8,13.2
	c-1,0.6-1.9,1.5-2.6,2.5c-4.3,5.8-8.3,11.8-12.7,17.6c-3.4,4.5-7,8.7-11,12.7c-6.9,6.7-15.5,9.8-24.9,11l-2.4,0.3
	c-2.8,21.1-4.8,42.1-6.2,63.4H28.3 M137.9,23.2L137.9,23.2c-5,0-9.9,0.6-14.8,1.6c-8.2,1.9-16.3,4.6-23.9,8.2
	c-20.9,9.5-40.9,20.6-60,33.3C32,70.9,25.3,76.4,19.4,82.6c-4.4,4.6-8.4,9.4-12.2,14c-2.6,3.2-4.4,6.8-5.4,10.8
	c-1.5,5.6-2,11.4-1.6,17.1c0.6,10.9,2.1,21.7,4.5,32.3c0.7,3.5,1.2,7.1,1.4,10.6c0.1,2.2,0.4,4.4,0.8,6.6l0.3,1.9
	c0.6,3.1,0.5,6.2-0.4,9.2c-4.5,12.4-5.9,25.7-4.1,38.7c0.4,3.5,1.9,6.8,4.4,9.3c5.1,5.5,11.6,9.3,18.9,11l1.1,0.3
	c0.1,0.3,0.2,0.7,0.2,1c1.8,10.6,5,21,9.4,30.9c2,4.9,6.2,8.5,11.3,9.9c21.5,6.6,43.9,9.9,66.5,10c2.9,0,5.8-0.1,8.7-0.2
	c19.4-0.8,38.7-4,57.3-9.6c3.5-1,6.6-3.1,8.9-5.9c5.5-6.7,9.5-14.5,11.5-22.9c0.6-2.4,1.3-4.7,2-7c0.3-1,0.6-2,0.9-3.1
	c0.1-0.5,0.5-0.9,0.9-1c1.8-0.8,3.5-1.7,5.2-2.7c4.4-2.7,9.9-6.6,14.1-12.2c2.4-2.9,3.7-6.6,3.7-10.4l-0.1-4.7
	c-0.1-5.8-0.3-11.8-0.5-17.7c-0.1-6.6-1.3-13.2-3.7-19.4c-0.1-0.3-0.1-0.6,0.1-0.9c0.7-1.7,1.3-3.5,1.5-5.4c1-9.1,2.1-17.1,3.5-24.5
	c2-9.8,2.5-19.8,1.6-29.8c-1.2-11.2-5.1-20-11.8-26.7c-0.5-0.5-0.9-1-1.4-1.5c-0.2-0.3-0.5-0.5-0.7-0.8c-7.6-8.3-15.8-14-25.3-17.3
	l0.4-1c2.2-6,2.6-12.4,1.2-18.6c-0.9-4.8-3.7-9.1-8.5-13.3c-6.4-5.5-13.9-8.9-19.8-11.2C155.7,25,146.8,23.3,137.9,23.2L137.9,23.2z
	 M43.3,137.7l0.9-0.1c11-1.4,19.5-5.2,26-11.6c4-4,7.8-8.4,11.3-12.9c2.8-3.6,5.5-7.4,8.1-11c1.5-2.2,3.1-4.4,4.7-6.6
	c0.5-0.8,1.2-1.4,2-1.9c13-6.9,25.1-11.2,37.1-13c3-0.5,6-0.7,9.1-0.7c3.1,0,6.3,0.3,9.3,0.9c10.5,2.1,17.9,7.7,22.8,17.2
	c2.6,5.5,4.8,11.2,6.5,17.1l0.5,1.6c4.4,13.5,7.3,27.6,8.6,41.8c0.9,9.7,1,19.5,0.3,29.2c-0.1,0.9-0.2,1.9-0.3,2.8s-0.2,1.6-0.2,2.4
	c0,0.5,0,0.9,0.1,1.4c0,0.2,0,0.3,0.1,0.5l0.2,1.8h10.6l0.2-1.8c0.1-0.5,0.1-1,0.1-1.4c0.1-0.9,0.1-1.8,0.3-2.6c0.3-2.6,2-4.9,4.4-6
	c1.4,2.6,2.3,5.5,2.5,8.5c0.4,4.9,0.6,10,0.9,14.9l0.1,3.7c0.1,1.4,0.1,2.9,0.1,4.4c0,1.2,0,2.4,0,3.7c0,0.6-0.2,1.1-0.6,1.5
	c-2.9,3.1-6.3,5.8-10,7.8c-0.2,0.1-0.4,0.2-0.6,0.2c-4.1,0.7-7.7,3.4-9.4,7.2c-1.5,3.1-2.7,6.2-3.8,9.4c-0.7,2.1-1.2,4.2-1.8,6.3
	c-0.1,0.6-0.3,1.1-0.4,1.6c-1.3,5-3.5,9.6-6.7,13.7c-0.6,0.8-1.5,1.4-2.5,1.7c-15,4.4-30.5,7.1-46.1,8.2c-4.5,0.3-9,0.4-13.4,0.4
	c-20.2,0-40.3-3-59.6-8.8c-1.1-0.2-1.9-1-2.3-2c-3.7-8.6-6.3-17.5-7.7-26.8c-1.2-7.6-5.8-12.4-13.4-13.8c-3.9-0.6-7.4-2.5-10.1-5.3
	c-0.3-0.3-0.5-0.6-0.5-1c-1.3-9.9-0.1-20,3.3-29.3c1.2,2.7,2.1,5.6,2.5,8.5l0.3,1.6h10.5l0.1-1.9C38.8,177,40.8,156.8,43.3,137.7
	L43.3,137.7z"/>
<path d="M303.5,221.8l31.8-23.9c6,11.5,14.8,17,22.5,17c12.6,0,19.8-6,19.8-28.5V73.8h47.2v116.4c0,35.7-19.2,65.3-60.4,65.3
	C335.4,255.6,316.7,244.6,303.5,221.8z"/>
<path d="M441.3,213.3c0-28.6,22-44.5,74.7-50c-1.1-9.9-7.1-14.3-19.2-14.3c-9.9,0-20.3,3.8-34.6,11.5l-16.5-30.7
	c19.2-11.5,39-18.1,60.4-18.1c35.7,0,57.1,19.2,57.1,64.2v76.3h-38.4l-3.3-13.2h-1.1c-11,9.9-23.1,16.5-37.9,16.5
	C456.7,255.6,441.3,235.8,441.3,213.3z M516,210v-18.7c-22.5,3.3-29.6,10.4-29.6,18.1c0,6.3,4.4,9.9,12.6,9.9
	C506.7,219.3,511.1,215.5,516,210L516,210z"/>
<path d="M584.3,61.2h46.1v101.6h1.1l37.9-47.8h51l-48.8,57.1l51.6,80.1h-51.1l-27.5-48.9l-14.3,15.9v32.9h-46.1V61.2z"/>
<path d="M722.2,183.6c0-44.5,32.4-71.9,65.9-71.9c40.6,0,59.8,29.6,59.8,66.4c0,6.6-0.6,13.3-1.9,19.8h-78.2
	c4.4,16.5,16.5,22,31.8,22c9.3,0,18.1-2.7,28-8.2l15.4,28c-14.8,10.4-34.6,15.9-50,15.9C752.9,255.6,722.2,229.2,722.2,183.6z
	 M807.8,167.2c0-10.4-4.4-19.8-18.7-19.8c-10.4,0-19.2,6-22,19.8H807.8z"/>
<path d="M915.4,73.8h48.3l9.9,77.9c1.9,18.7,4.1,37.3,6,56h1.1c3.3-18.7,6.6-37.6,9.9-56l17-77.9h39.5l17,77.9
	c3.3,17.8,6.6,37.1,9.9,56h1.1c1.9-18.9,4.1-37.9,6-56l10-77.9h45l-29.7,178.4h-59.8l-13.7-70.8c-2.7-13.7-4.9-28.6-6.6-41.7h-1.1
	c-1.9,13.2-3.8,28-6.6,41.7l-13.2,70.8h-58.7L915.4,73.8z"/>
<path d="M1146.6,74.4c0-13.7,11-23.6,26.3-23.6s26.3,9.9,26.3,23.6S1188.3,98,1173,98S1146.6,88.1,1146.6,74.4z M1149.4,115h47.2
	v137.2h-47.2V115z"/>
<path d="M1208.9,274.8c0-11.2,6.6-19.8,19.2-26.4v-1.1c-7.1-4.9-12.6-12.1-12.6-23.6c0-9.3,6-19.2,15.4-25.8v-1.1
	c-11.7-7.9-18.6-21.1-18.7-35.1c0-34,28.6-50,58.7-50c7.5-0.1,14.9,1,22,3.3h51.1v34h-19.8c1.4,4.6,2.2,9.4,2.2,14.3
	c0,32.4-24.7,45.6-55.4,45.6c-5.2-0.1-10.3-0.7-15.4-1.9c-2.7,2.5-3.3,4.1-3.3,8c0,6,5.5,8.2,19.2,8.2h20.6
	c34.3,0,54.1,10.4,54.1,35.7c0,29.6-30.7,50-79.6,50C1235.2,308.8,1208.9,299.5,1208.9,274.8z M1301.1,267.1c0-7.1-6.6-8.2-18.4-8.2
	H1272c-11,0-15.9-0.5-19.8-1.6c-3.3,3.3-4.9,6-4.9,9.9c0,8.8,11,12.6,26.9,12.6C1289.6,279.7,1301.1,274.8,1301.1,267.1
	L1301.1,267.1z M1285.7,161.7c0-12.6-6-18.7-14.8-18.7s-14.8,6-14.8,18.7c0,13.2,6,19.2,14.8,19.2S1285.7,174.9,1285.7,161.7
	L1285.7,161.7z"/>
<path d="M1355.1,213.3c0-28.6,22-44.5,74.7-50c-1.1-9.9-7.1-14.3-19.2-14.3c-9.9,0-20.3,3.8-34.6,11.5l-16.5-30.7
	c19.2-11.5,39-18.1,60.4-18.1c35.7,0,57.1,19.2,57.1,64.2v76.3h-38.4l-3.3-13.2h-1.1c-11,9.9-23.1,16.5-37.9,16.5
	C1370.4,255.6,1355.1,235.8,1355.1,213.3z M1429.7,210v-18.7c-22.5,3.3-29.7,10.4-29.7,18.1c0,6.3,4.4,9.9,12.6,9.9
	C1420.4,219.3,1424.8,215.5,1429.7,210L1429.7,210z"/>
<path d="M1498,203.9V61.2h47.2v144.4c0,9.3,4.4,12.1,7.7,12.1c1.7,0.1,3.4-0.1,5-0.6l5.5,34.6c-4.9,2.2-12.6,3.9-23,3.9
	C1508.4,255.6,1498,234.7,1498,203.9z"/>
</svg>
